<svg height="512" viewBox="0 0 58 58" width="512" xmlns="http://www.w3.org/2000/svg"><g id="Page-1" fill="none" fill-rule="evenodd"><g id="020---Bat-Over-Moon" fill-rule="nonzero" transform="translate(-1)"><path id="Shape" d="m51 33c0 .22 0 .43-.02.65v.01c-.3345361 12.8222053-10.3185506 23.3109664-23.1086919 24.2769628s-24.23627407-7.9042176-26.49286586-20.5307238c-2.25659178-12.6265061 5.40857465-24.9122652 17.74155776-28.436239l26.21 8.17c3.6707364 4.4699086 5.6749407 10.0760252 5.67 15.86z" fill="#7f8384"/><path id="Shape" d="m51 33c0 .22 0 .43-.02.65v.01c-5.8148053 9.5850871-17.2091057 14.2464239-28.0747138 11.4851892-10.865608-2.7612347-18.65207798-12.2969061-19.1852862-23.4951892 3.15363517-6.1787214 8.7308698-10.7708861 15.4-12.68l26.21 8.17c3.6707364 4.4699086 5.6749407 10.0760252 5.67 15.86z" fill="#8c9c9c"/><path id="Shape" d="m59 17.14c.0046415.3460511-.1745074.6686293-.4707246.8475938-.2962172.1789646-.665105.1874919-.9692754.0224062-1.0961956-.6408857-2.3402877-.9855095-3.61-1-1.5986387.0291331-3.1467183.5652357-4.421 1.531-.3346629.2493413-.7933371.2493413-1.128 0-1.2752007-.964044-2.8227029-1.4999467-4.421-1.531-2.24 0-4.47 1.681-5.46 4.622-.0774054.2209016-.2859292.3687886-.52.3687886s-.4425946-.147887-.52-.3687886c-.99-2.941-3.22-4.622-5.46-4.622-1.5979534.0312633-3.1450743.5671551-4.42 1.531-.3346629.2493413-.7933371.2493413-1.128 0-1.2744574-.9661494-2.822981-1.5022846-4.422-1.531-1.2697123.0144905-2.5138044.3591143-3.61 1-.3041704.1650857-.6730582.1565584-.9692754-.0224062-.2962172-.1789645-.4753661-.5015427-.4707246-.8475938.0678102-5.8454053 3.0457784-11.27213343 7.94-14.469.2492944-.16675197.5619505-.20811168.8460288-.1119169.2840782.09619477.5072802.31900715.6039712.6029169.56 1.471 1.89 3.838 4.63 3.838.2206678.00223739.4412176-.01112927.66-.04.9217043-.11030817 1.7372285-.64929551 2.2-1.454.1855744-.35311429.1393491-.78336509-.117-1.089-.6216469-1.02451607-.8864356-2.22608735-.753-3.417.007763-.31929646.1646392-.61652232.4238731-.80309214.2592338-.18656983.590892-.24094069.8961269-.14690786 1.0720778.35466709 1.9532223 1.13108541 2.44 2.15.7983168-.26668477 1.6616832-.26668477 2.46 0 .4867777-1.01891459 1.3679222-1.79533291 2.44-2.15.3052349-.09403283.6368931-.03966197.8961269.14690786.2592339.18656982.4161101.48379568.4238731.80309214.1432872 1.21789952-.1393797 2.4478537-.8 3.481-.2587327.31526167-.2983918.75666694-.1 1.113.6071094.99171711 1.7350069 1.54044511 2.89 1.406 2.74 0 4.07-2.371 4.63-3.842.096691-.28390975.319893-.50672213.6039712-.6029169.2840783-.09619478.5967344-.05483507.8460288.1119169 4.8953903 3.19765202 7.8735181 8.6261713 7.94 14.473z" fill="#35495e"/><path id="Shape" d="m27 15.013c-.5522847 0-1-.4477153-1-1 0-3.25 1.077-4.492 1.293-4.707.3849425-.39654045 1.0184595-.40594247 1.415-.021s.4059425 1.0184595.021 1.415c-.046.057-.729.942-.729 3.316-.0016533.5511128-.4488847.9970025-1 .997z" fill="#2c3e50"/><path id="Shape" d="m49 15.013c-.5522847 0-1-.4477153-1-1 0-2.445-.724-3.31-.731-3.319-.3554551-.4087143-.3281931-1.02430723.062-1.4.3856797-.37068509.9968439-.36535517 1.376.012.216.215 1.293 1.457 1.293 4.707 0 .5522847-.4477153 1-1 1z" fill="#2c3e50"/><g fill="#547580"><circle id="Oval" cx="12" cy="27" r="4"/><circle id="Oval" cx="35" cy="34" r="4"/><circle id="Oval" cx="12" cy="41" r="2"/><circle id="Oval" cx="26" cy="26" r="2"/><circle id="Oval" cx="43" cy="27" r="2"/><circle id="Oval" cx="28" cy="50" r="2"/><circle id="Oval" cx="24" cy="40" r="3"/><path id="Shape" d="m50.88 35.47c-.2556018 2.5970411-.9169726 5.1379196-1.96 7.53-1.6546927-.0332091-3.1180546-1.0820248-3.6811241-2.6383229-.5630695-1.556298-.109551-3.2986422 1.1408375-4.3829113 1.2503885-1.0842692 3.039393-1.2865194 4.5002866-.5087658z"/></g></g></g></svg>