<?xml version="1.0" standalone="no"?>
<!DOCTYPE svg PUBLIC "-//W3C//DTD SVG 20010904//EN"
 "http://www.w3.org/TR/2001/REC-SVG-20010904/DTD/svg10.dtd">
<svg version="1.0" xmlns="http://www.w3.org/2000/svg"
 width="3600.000000pt" height="3600.000000pt" viewBox="0 0 3600.000000 3600.000000"
 preserveAspectRatio="xMidYMid meet">
<metadata>
Created by potrace 1.11, written by Peter Selinger 2001-2013
</metadata>
<g transform="translate(0.000000,3600.000000) scale(0.100000,-0.100000)"
fill="#000000" stroke="none">
<path d="M16116 28576 c2 -11 7 -34 11 -51 3 -16 7 -37 8 -45 1 -8 9 -44 18
-80 15 -58 40 -171 53 -240 3 -14 16 -71 29 -128 14 -56 27 -113 29 -125 3
-12 7 -31 10 -42 2 -11 23 -103 46 -204 22 -101 42 -187 44 -190 2 -3 7 -24
10 -46 4 -22 15 -76 26 -120 43 -181 111 -471 114 -490 2 -11 13 -58 25 -105
11 -47 25 -107 31 -135 17 -73 16 -69 50 -210 18 -71 33 -134 34 -140 2 -5 7
-28 11 -50 5 -22 10 -42 10 -45 1 -3 5 -16 8 -30 14 -54 49 -196 53 -217 2
-11 20 -83 39 -160 20 -76 38 -147 40 -158 3 -11 9 -38 14 -60 5 -22 12 -50
15 -62 3 -13 8 -31 10 -40 9 -37 86 -330 99 -378 8 -27 28 -106 46 -175 18
-69 35 -131 37 -138 2 -7 4 -14 5 -17 17 -63 135 -445 163 -532 l14 -41 -26 8
c-15 4 -151 45 -302 90 -151 45 -311 93 -355 107 -44 13 -96 28 -115 33 -19 4
-54 15 -78 23 -23 9 -45 16 -47 16 -3 0 -36 9 -73 20 -37 12 -76 23 -87 26
-11 2 -119 34 -240 70 -121 37 -296 89 -390 116 -93 28 -215 64 -270 81 -55
16 -113 33 -130 38 -16 4 -84 25 -150 45 -66 20 -127 38 -135 40 -8 2 -69 20
-135 40 -153 46 -144 43 -185 54 -19 5 -80 23 -135 39 -419 126 -512 154 -525
157 -8 2 -27 8 -42 14 -16 6 -28 8 -28 6 0 -3 -17 1 -37 9 -21 8 -69 23 -108
35 -240 71 -389 115 -450 132 -97 29 -229 68 -299 90 -33 11 -67 19 -76 19 -9
0 -20 3 -24 7 -3 4 -12 8 -19 9 -7 1 -59 17 -117 34 -58 18 -109 33 -115 35
-5 1 -17 4 -25 7 -23 9 -99 29 -105 28 -3 0 -21 6 -40 14 -19 8 -35 13 -35 10
0 -3 -8 0 -18 5 -11 6 -30 12 -43 15 -13 3 -55 15 -94 27 -89 26 -167 49 -180
53 -15 3 -126 37 -155 46 -14 5 -90 27 -170 50 -80 23 -152 44 -160 47 -8 3
-20 7 -26 8 -6 2 -48 14 -95 28 -46 14 -109 33 -139 41 -95 26 -360 105 -369
110 -4 3 -18 7 -32 10 -13 2 -87 23 -164 46 -77 23 -214 64 -305 90 -91 26
-177 53 -192 59 -16 6 -28 8 -28 6 0 -2 -12 0 -27 6 -16 6 -35 12 -43 14 -8 2
-46 14 -85 25 -38 12 -83 25 -100 30 -16 4 -85 24 -152 44 -68 20 -178 52
-245 72 -68 20 -135 40 -151 44 -15 5 -31 10 -35 11 -4 1 -11 3 -17 5 -5 2
-113 33 -240 69 -126 36 -251 73 -276 81 -25 8 -54 17 -65 19 -10 3 -50 14
-89 25 -38 12 -99 29 -135 39 -36 11 -137 40 -225 66 -88 26 -169 50 -180 52
-11 3 -27 7 -35 10 -8 3 -21 7 -28 9 -6 1 -49 14 -95 28 -45 13 -109 32 -142
41 -81 22 -96 26 -280 80 -166 48 -184 53 -224 61 -14 3 -28 7 -33 10 -4 3
-88 28 -185 55 -189 53 -297 84 -350 100 -59 17 -108 30 -132 35 -14 3 -29 8
-34 11 -8 5 -110 34 -167 47 -8 2 -35 10 -60 17 -25 7 -49 13 -55 15 -5 1 -30
7 -55 14 -25 7 -53 14 -64 16 -10 2 -44 11 -75 20 -31 9 -89 25 -128 35 -98
25 -202 53 -290 77 -40 11 -73 19 -73 18 0 -3 48 -143 57 -166 3 -8 7 -19 9
-25 11 -41 101 -284 132 -358 22 -51 76 -180 122 -287 45 -107 106 -250 136
-318 30 -67 54 -127 54 -132 0 -6 5 -10 10 -10 6 0 10 -6 10 -13 0 -7 9 -31
19 -53 18 -37 54 -115 99 -214 136 -301 178 -393 200 -440 15 -30 27 -57 27
-60 1 -3 23 -50 49 -105 27 -55 81 -170 121 -255 40 -85 95 -202 123 -260 78
-166 127 -269 166 -355 21 -44 42 -88 47 -97 5 -10 13 -26 18 -35 6 -10 37
-74 69 -143 33 -69 108 -224 167 -345 59 -121 131 -269 160 -330 51 -107 152
-314 410 -840 70 -143 174 -357 232 -475 141 -289 1802 -3615 1902 -3807 43
-84 76 -153 73 -153 -2 0 1 -6 7 -14 11 -13 70 -129 504 -989 119 -236 220
-434 224 -440 4 -7 8 -14 8 -17 1 -3 16 -34 35 -70 19 -36 34 -68 35 -72 0 -4
6 -13 13 -20 6 -6 12 -19 12 -28 0 -9 4 -20 9 -26 6 -5 79 -144 162 -309 84
-165 192 -376 241 -470 48 -93 92 -180 98 -192 14 -33 38 -82 112 -223 36 -69
123 -240 193 -380 71 -140 133 -258 138 -261 5 -3 8 -9 8 -13 -1 -3 15 -39 35
-79 58 -114 278 -546 369 -722 141 -273 248 -482 360 -700 59 -115 140 -273
180 -350 40 -77 119 -230 175 -340 56 -110 107 -206 113 -212 5 -7 6 -13 2
-13 -4 0 -3 -6 3 -12 5 -7 37 -65 69 -128 33 -63 98 -187 143 -275 46 -88 121
-225 168 -305 47 -80 91 -157 99 -171 7 -15 20 -32 28 -39 8 -7 15 -16 15 -21
0 -8 114 -191 137 -219 7 -8 47 -65 90 -126 71 -102 111 -156 138 -187 6 -7
30 -39 54 -72 25 -33 47 -62 50 -65 6 -5 97 -114 114 -135 143 -185 552 -604
812 -830 38 -33 87 -77 109 -97 23 -21 44 -38 48 -38 4 0 13 -6 20 -13 7 -6
38 -32 68 -57 30 -25 64 -53 74 -62 11 -10 38 -30 60 -45 23 -15 43 -31 46
-35 10 -13 220 -166 345 -251 544 -370 1019 -629 1632 -891 111 -47 204 -86
208 -86 4 0 21 -6 38 -14 18 -8 68 -27 112 -44 44 -16 89 -33 100 -37 11 -4
25 -9 30 -11 6 -1 55 -19 110 -39 55 -20 105 -38 110 -39 6 -1 83 -26 172 -55
90 -29 171 -54 180 -56 10 -2 74 -20 143 -39 191 -53 308 -83 500 -127 242
-55 236 -54 320 -69 30 -5 88 -16 128 -24 40 -9 92 -18 115 -21 23 -3 49 -8
57 -10 8 -2 35 -7 60 -10 25 -2 54 -7 66 -9 12 -2 45 -8 75 -11 30 -4 63 -9
74 -10 107 -15 197 -27 230 -31 22 -2 56 -6 75 -9 19 -3 58 -7 85 -10 28 -2
75 -7 105 -10 30 -3 73 -7 95 -10 96 -9 304 -22 525 -32 215 -9 698 -9 870 0
196 11 289 16 340 21 146 13 192 18 250 26 36 5 88 12 115 15 28 3 61 7 75 9
14 3 66 10 115 16 50 6 162 24 250 40 88 16 171 31 185 34 125 22 397 88 590
141 129 36 260 72 290 81 30 8 64 19 75 24 11 5 43 16 70 24 96 28 438 151
530 191 17 7 91 39 165 70 153 64 173 73 286 126 45 22 85 39 88 39 3 0 27 13
53 28 26 16 51 29 56 30 32 5 500 260 640 349 37 24 70 43 73 43 2 0 17 8 32
19 15 10 101 67 192 126 91 59 167 110 170 114 3 4 19 15 35 25 17 10 53 35
80 55 28 21 81 59 118 87 38 27 74 54 80 60 7 5 39 30 72 54 33 24 62 46 65
50 3 3 39 33 80 65 93 74 334 280 415 354 120 111 512 505 585 588 41 47 86
98 100 112 26 28 113 130 146 170 10 13 24 28 29 35 58 64 324 411 395 515 19
29 40 57 45 64 28 33 85 118 85 126 0 5 3 11 8 13 4 2 23 28 42 58 19 30 37
57 41 60 3 3 12 17 20 32 12 22 68 113 141 226 10 15 21 34 25 42 3 8 14 26
23 40 10 14 32 52 50 85 18 33 42 76 53 95 49 87 85 156 160 305 45 88 82 162
82 165 1 3 22 49 48 103 26 53 46 98 45 100 -1 1 5 13 12 27 8 14 15 27 15 30
0 3 12 30 27 60 14 30 58 138 98 240 40 102 78 199 85 215 11 25 36 97 40 115
1 3 5 12 8 20 11 26 117 352 120 369 2 9 15 54 30 101 55 178 172 685 202 870
3 19 7 46 10 60 3 14 7 39 9 55 6 35 14 81 20 110 2 11 7 47 11 80 3 32 8 62
10 65 2 3 6 35 9 70 3 36 8 75 11 88 2 13 7 51 10 85 3 34 8 73 10 87 4 23 7
55 20 215 27 347 27 934 0 1340 -8 135 -28 332 -45 455 -5 36 -12 91 -15 123
-4 32 -8 68 -11 80 -2 12 -17 101 -34 197 -76 444 -179 864 -307 1250 -55 166
-107 318 -123 355 -4 11 -13 34 -19 50 -25 71 -152 377 -190 458 -22 48 -41
90 -41 92 0 8 -227 464 -253 510 -13 22 -37 65 -54 95 -93 170 -196 345 -205
348 -4 2 -8 7 -8 12 0 5 -22 41 -48 82 -27 40 -56 87 -65 103 -10 17 -37 57
-61 90 -25 33 -45 66 -45 73 -1 6 -5 12 -9 12 -4 0 -16 15 -27 33 -22 38 -253
354 -275 377 -8 9 -24 29 -35 44 -11 16 -27 36 -35 45 -9 9 -29 34 -45 56 -16
22 -39 50 -50 61 -11 12 -49 57 -85 100 -36 44 -69 84 -75 90 -448 498 -759
795 -1188 1136 -12 10 -26 21 -32 26 -5 4 -26 18 -45 32 -19 13 -37 27 -40 31
-5 6 -165 126 -265 199 -27 19 -81 56 -119 82 -39 25 -75 50 -81 55 -5 5 -35
24 -65 43 -30 19 -56 38 -58 42 -2 5 -8 8 -12 8 -5 0 -69 37 -142 83 -73 46
-153 95 -178 109 -25 14 -94 53 -155 88 -60 34 -121 68 -135 76 -61 36 -714
354 -726 354 -3 0 -48 21 -102 46 -95 45 -182 86 -192 89 -13 4 -65 28 -160
73 -58 27 -121 56 -140 65 -19 8 -66 30 -105 47 -38 18 -97 45 -130 60 -33 15
-89 41 -125 57 -36 17 -146 68 -245 113 -236 108 -265 121 -360 165 -44 21
-161 74 -260 120 -99 45 -211 97 -250 114 -38 18 -88 41 -110 51 -22 10 -71
32 -110 50 -38 18 -149 68 -245 112 -96 44 -217 100 -269 124 -51 24 -95 44
-96 44 -2 0 -47 21 -102 46 -130 61 -187 87 -253 117 -30 14 -199 91 -375 172
-176 81 -347 160 -380 175 -33 15 -112 51 -175 80 -268 122 -711 325 -790 362
-47 22 -128 59 -180 83 -52 24 -135 61 -183 84 -49 23 -90 41 -91 41 -2 0 -50
22 -107 49 -120 56 -575 265 -634 291 -22 10 -83 38 -135 63 -52 24 -117 54
-145 67 -27 12 -160 73 -295 135 -135 62 -321 147 -415 190 -93 43 -208 96
-255 118 -47 21 -132 61 -190 87 -58 26 -224 102 -370 170 -146 67 -274 126
-285 130 -11 4 -54 24 -95 43 -41 20 -177 83 -302 140 -196 90 -226 101 -222
83z"/>
</g>
</svg>
